<svg height="40" width="23.22" class="header-logo" fill="none" viewBox="0 0 23.22 40" xmlns="http://www.w3.org/2000/svg">
  <path d="M 13.599 8.962 C 13.198 8.361 12.339 8.046 11.48 8.046 C 10.335 8.046 9.018 8.59 9.018 9.992999999999999 C 9.018 11.395999999999997 10.106000000000002 11.967999999999998 11.795000000000002 11.967999999999998 L 11.795000000000002 13.112999999999998 C 11.595000000000002 13.112999999999998 11.365000000000002 13.112999999999998 11.136000000000001 13.142999999999997 C 9.562000000000001 13.284999999999997 8.302000000000001 14.000999999999998 8.302000000000001 15.746999999999996 C 8.302000000000001 17.550999999999995 9.676000000000002 18.438999999999997 11.337000000000002 18.438999999999997 C 12.997000000000002 18.438999999999997 14.114 17.321999999999996 14.114 15.431999999999997 L 14.114 11.967999999999996 L 16.634 11.967999999999996 L 16.634 13.112999999999996 L 15.316 13.112999999999996 L 15.316 15.402999999999995 C 15.316 17.865999999999996 13.971 19.612999999999996 11.336 19.612999999999996 C 8.646 19.612999999999996 6.928 17.951999999999995 6.928 15.775999999999996 C 6.928 14.057999999999996 7.873 12.941999999999997 9.448 12.454999999999997 C 8.331 12.110999999999997 7.73 11.194999999999997 7.73 10.020999999999997 C 7.73 7.902999999999997 9.533000000000001 6.900999999999997 11.537 6.900999999999997 C 12.912 6.900999999999997 14.057 7.330999999999997 14.658000000000001 8.130999999999997 L 13.598 8.961999999999996" visibility="visible" fill="hsl(0, 0%, 20%)"></path>
  <path d="M12.368,18.982 h-1.546 v9.935 h1.546 v-9.935 " visibility="visible" fill="hsl(0, 0%, 20%)"></path>
  <path d="M11.681,.0 C6.642,.0 3.836,2.319 2.376,4.237 C.63,6.527 .0,9.277 .0,11.051 c0,4.552 1.832,7.473 3.378,9.133 c.573,.601 1.174,1.088 1.69,1.518 c.6,.486 1.202,.973 1.288,1.317 c.172,.945 .315,2.319 .343,3.722 c.03,.887 .401,1.402 .716,1.66 c.573,.487 1.289,.487 1.518,.458 h2.662 v-1.546 H8.79 s-.229,.0 -.372,-.086 c-.143,-.114 -.143,-.372 -.172,-.515 c-.028,-1.517 -.171,-2.949 -.372,-3.98 c-.171,-.887 -.945,-1.488 -1.832,-2.233 c-.487,-.4 -1.03,-.83 -1.546,-1.374 c-1.317,-1.432 -2.949,-4.008 -2.949,-8.045 c.0,-2.634 1.832,-9.505 10.135,-9.505 c7.93,.0 10.02,6.184 10.02,9.476 c.0,3.035 -.858,5.554 -2.519,7.53 c-.343,.4 -.801,.802 -1.26,1.231 c-1.059,.973 -2.147,1.976 -2.433,3.35 c-.344,1.746 -.23,5.669 -.23,5.84 v.143 c0,.659 -.2,.945 -.629,.945 l-6.041,.029 c-.172,.0 -1.117,.029 -1.746,.63 c-.373,.343 -.544,.83 -.544,1.374 c.0,1.489 1.431,2.004 2.405,2.004 h6.27 c.6,.0 .6,.945 .0,.945 h-6.7 c-.487,.0 -.916,.143 -1.345,.515 c-.287,.258 -.63,.716 -.63,1.518 c.0,.544 .2,1.002 .572,1.345 c.601,.573 1.518,.63 1.89,.63 h8.016 v-1.632 H8.303 c-.601,.0 -.601,-.944 .0,-.944 h6.47 c.401,.0 1.088,-.115 1.575,-.573 c.372,-.372 .572,-.859 .572,-1.403 c.0,-.573 -.2,-1.03 -.572,-1.403 c-.687,-.63 -1.66,-.572 -1.947,-.572 H8.274 c-.601,.0 -.601,-.945 .0,-.945 h6.986 c.4,.0 .716,-.172 1.002,-.43 c.63,-.601 .544,-1.632 .544,-2.29 c.0,-.287 -.115,-3.951 .172,-5.469 c.171,-.887 1.03,-1.66 1.946,-2.49 c.487,-.43 .974,-.888 1.375,-1.375 c1.918,-2.233 2.92,-5.124 2.92,-8.531 C23.276,7.215 20.843,.0 11.681,.0 " visibility="visible" fill="hsl(0, 0%, 20%)"></path>
</svg>
